<svg id="a03fb819-3a0e-45ee-b7a0-03b704cafb48" xmlns="http://www.w3.org/2000/svg" width="96" height="96" viewBox="0 0 96 96">
  <defs>
    <linearGradient id="a8110246-3601-4822-9429-928314d2dbe8" x1="-1032.172" y1="305.3118" x2="-1059.2132" y2="225.4257" gradientTransform="matrix(1, 0, 0, -1, 1075, 318)" gradientUnits="userSpaceOnUse">
      <stop offset="0" stop-color="#114a8b"/>
      <stop offset="1" stop-color="#0669bc"/>
    </linearGradient>
    <linearGradient id="b105c0d6-22d5-4d2b-b32a-e4859c3b0ff2" x1="-1023.7248" y1="268.0829" x2="-1029.9801" y2="265.9678" gradientTransform="matrix(1, 0, 0, -1, 1075, 318)" gradientUnits="userSpaceOnUse">
      <stop offset="0" stop-opacity="0.3"/>
      <stop offset="0.0712" stop-opacity="0.2"/>
      <stop offset="0.321" stop-opacity="0.1"/>
      <stop offset="0.6231" stop-opacity="0.05"/>
      <stop offset="1" stop-opacity="0"/>
    </linearGradient>
    <linearGradient id="ae146327-214e-417a-9811-3c18afb0f7be" x1="-1027.1649" y1="307.6424" x2="-997.4822" y2="228.5606" gradientTransform="matrix(1, 0, 0, -1, 1075, 318)" gradientUnits="userSpaceOnUse">
      <stop offset="0" stop-color="#3ccbf4"/>
      <stop offset="1" stop-color="#2892df"/>
    </linearGradient>
  </defs>
  <g>
    <path d="M33.3377,6.5443H59.3759L32.3466,86.6309a4.1522,4.1522,0,0,1-3.9341,2.8244H8.1488a4.1454,4.1454,0,0,1-3.9279-5.471L29.4037,9.3686A4.1521,4.1521,0,0,1,33.3377,6.5443Z" fill="url(#a8110246-3601-4822-9429-928314d2dbe8)"/>
    <path d="M71.1749,60.2613H29.8843A1.9115,1.9115,0,0,0,28.58,63.57L55.1123,88.3335a4.1711,4.1711,0,0,0,2.8456,1.1218H81.3371Z" fill="#0078d4"/>
    <path d="M33.3377,6.5443a4.118,4.118,0,0,0-3.9424,2.8784L4.252,83.9166a4.14,4.14,0,0,0,3.9085,5.5387H28.9473a4.4428,4.4428,0,0,0,3.41-2.9009l5.0134-14.776,17.91,16.7043a4.2374,4.2374,0,0,0,2.6659.9726H81.24L71.0236,60.2613l-29.781.0066L59.4705,6.5443Z" fill="url(#b105c0d6-22d5-4d2b-b32a-e4859c3b0ff2)"/>
    <path d="M66.5948,9.3641a4.1452,4.1452,0,0,0-3.9276-2.82H33.6483a4.1459,4.1459,0,0,1,3.928,2.82l25.1842,74.62a4.146,4.146,0,0,1-3.9281,5.4714h29.019a4.1456,4.1456,0,0,0,3.9276-5.4714Z" fill="url(#ae146327-214e-417a-9811-3c18afb0f7be)"/>
  </g>
</svg>
